<svg xmlns="http://www.w3.org/2000/svg" viewBox="0 0 448 512" fill="#25D366">
  <path d="M380.9 97.1C339-4.9 239.2-34.2 156.3 9.1 61.6 58.1 24.1 179.5 73.1 274.2L40 480l211.1-65.9c93.2 48.3 207.2 12.1 255.5-81.1 43.3-82.9 14-182.8-81.7-236.1zM224.1 413.4c-33 0-65.6-9-94-26l-6.7-4-62.7 19.6 19.9-61.1-4.4-6.9c-21-32.9-28.4-73.5-20.8-112 12.3-62.9 62.9-109.4 127.3-117.3 96.8-12 179.3 66.4 167.3 168.7-8.6 73.9-71.5 130.4-145.9 130.4zm82.4-110.4c-4.5-2.3-26.6-13.1-30.7-14.6-4.1-1.5-7.1-2.3-10.1 2.3-2.9 4.5-11.6 14.6-14.2 17.6-2.6 3-5.2 3.4-9.7 1.1-4.5-2.3-19-7-36.3-22.5-13.5-12.1-22.6-27-25.2-31.5-2.6-4.5-.3-7 2-9.2 2-2 4.5-5.2 6.8-7.8 2.3-2.6 3-4.5 4.5-7.5 1.5-3 .8-5.6-.4-7.9-1.1-2.3-10.1-24.3-13.9-33.3-3.7-8.9-7.5-7.7-10.1-7.8-2.6-.1-5.6-.1-8.6-.1s-7.9 1.1-12 5.6c-4.1 4.5-15.7 15.4-15.7 37.5 0 22.1 16.1 43.4 18.3 46.4 2.3 3 31.6 48.2 76.4 67.6 10.7 4.6 19 7.4 25.5 9.5 10.7 3.4 20.4 2.9 28.1 1.8 8.6-1.3 26.6-10.8 30.3-21.3 3.7-10.5 3.7-19.5 2.6-21.3-1.1-1.8-4.1-3-8.6-5.3z"/>
</svg>
