<svg width="160" height="160" viewBox="0 0 160 160" fill="none" xmlns="http://www.w3.org/2000/svg">
  <defs>
    <radialGradient id="bg" cx="30%" cy="25%" r="80%">
      <stop offset="0" stop-color="#6BA8FF" />
      <stop offset="1" stop-color="#0B1740" />
    </radialGradient>
    <linearGradient id="panel" x1="0" y1="0" x2="1" y2="1">
      <stop offset="0" stop-color="rgba(255,255,255,0.2)" />
      <stop offset="1" stop-color="rgba(255,255,255,0.08)" />
    </linearGradient>
    <filter id="glow" x="-20" y="-20" width="200" height="200" filterUnits="userSpaceOnUse">
      <feGaussianBlur stdDeviation="6" stdDeviationY="6" in="SourceGraphic" result="blur" />
    </filter>
  </defs>
  <rect x="8" y="8" width="144" height="144" rx="38" fill="url(#bg)" />
  <rect x="12" y="12" width="136" height="136" rx="34" stroke="rgba(255,255,255,0.12)" />
  <g transform="translate(34 36)">
    <rect x="4" y="16" width="84" height="56" rx="20" fill="url(#panel)" stroke="rgba(255,255,255,0.18)" />
    <rect x="14" y="26" width="64" height="36" rx="14" fill="#050A1A" stroke="rgba(255,255,255,0.12)" />
    <circle cx="32" cy="44" r="8" fill="#8DD3FF" filter="url(#glow)" />
    <circle cx="60" cy="44" r="8" fill="#C2E7FF" filter="url(#glow)" />
    <rect x="0" y="38" width="8" height="12" rx="3" fill="#0B1740" />
    <rect x="92" y="38" width="8" height="12" rx="3" fill="#0B1740" />
    <path d="M32 10C32 4.47715 36.4772 0 42 0H54C59.5228 0 64 4.47715 64 10V16H32V10Z" fill="#0F2048" />
  </g>
  <text x="24" y="132" fill="white" font-family="'Inter', 'Helvetica Neue', Arial, sans-serif" font-weight="700" font-size="22">
    Auraliq IA
  </text>
</svg>
